<?xml version="1.0" encoding="UTF-8" standalone="no"?>
<!-- Created with Inkscape (http://www.inkscape.org/) -->

<svg
   width="1920"
   height="1080"
   viewBox="0 0 1920 1080"
   version="1.1"
   id="svg1"
   xml:space="preserve"
   inkscape:version="1.3.2 (091e20e, 2023-11-25, custom)"
   sodipodi:docname="bookrenamerIcon.svg"
   inkscape:export-filename="appIcon-32.png"
   inkscape:export-xdpi="96"
   inkscape:export-ydpi="96"
   xmlns:inkscape="http://www.inkscape.org/namespaces/inkscape"
   xmlns:sodipodi="http://sodipodi.sourceforge.net/DTD/sodipodi-0.dtd"
   xmlns="http://www.w3.org/2000/svg"
   xmlns:svg="http://www.w3.org/2000/svg"><sodipodi:namedview
     id="namedview1"
     pagecolor="#ffffff"
     bordercolor="#000000"
     borderopacity="0.25"
     inkscape:showpageshadow="2"
     inkscape:pageopacity="0.0"
     inkscape:pagecheckerboard="0"
     inkscape:deskcolor="#d1d1d1"
     inkscape:document-units="px"
     showguides="true"
     inkscape:zoom="1.2614583"
     inkscape:cx="847.43187"
     inkscape:cy="394.78117"
     inkscape:window-width="1920"
     inkscape:window-height="1009"
     inkscape:window-x="-8"
     inkscape:window-y="-8"
     inkscape:window-maximized="1"
     inkscape:current-layer="layer1" /><defs
     id="defs1" /><g
     inkscape:label="Layer 1"
     inkscape:groupmode="layer"
     id="layer1"><g
       id="g30"
       transform="matrix(0.74876455,0,0,0.98822218,-236.53243,-296.43439)"
       style="stroke-width:1.16251"
       inkscape:export-filename="bookrenamerIcon.png"
       inkscape:export-xdpi="96"
       inkscape:export-ydpi="96"><g
         id="g35"
         inkscape:label="book"
         style="stroke-width:1.16251"><g
           id="g11"
           transform="matrix(-1,0,0,0.74324017,2410.6132,224.58433)"
           style="display:inline;stroke-width:1.34845"
           inkscape:label="left"><g
             id="g28"
             inkscape:label="pages"
             style="stroke-width:1.34845"><path
               id="path9"
               style="fill:#00acea;fill-opacity:1;stroke:none;stroke-width:32.3628"
               d="m 905.09445,443.82676 c 75.4206,-22.7044 151.57005,28.8971 229.09995,56.81454 22.3129,8.03457 42.8076,19.09219 42.8076,42.8076 v 386.06113 c 0,23.71541 -19.6583,47.95837 -42.8076,42.8076 -65.2623,-14.52101 -136.55905,-21.15101 -229.09995,0 -23.1192,5.28409 -42.8076,-19.09219 -42.8076,-42.8076 V 486.63436 c 0,-23.71541 20.0989,-35.97143 42.8076,-42.8076 z"
               sodipodi:nodetypes="sssssssss" /><path
               id="path11"
               style="fill:none;stroke:#083863;stroke-width:32.3628"
               d="m 905.09445,443.82676 c 75.4206,-22.7044 151.57005,28.8971 229.09995,56.81454 22.3129,8.03457 42.8076,19.09219 42.8076,42.8076 v 386.06113 c 0,23.71541 -19.6583,47.95837 -42.8076,42.8076 -65.2623,-14.52101 -136.55905,-81.15101 -229.09995,-60 -23.1192,5.28409 -42.8076,-19.09219 -42.8076,-42.8076 V 486.63436 c 0,-23.71541 20.0989,-35.97143 42.8076,-42.8076 z m 0,0 c 75.4206,-22.7044 151.57005,28.8971 229.09995,56.81454 22.3129,8.03457 42.8076,19.09219 42.8076,42.8076 v 386.06113 c 0,23.71541 -19.6583,47.95837 -42.8076,42.8076 -65.2623,-14.52101 -136.55905,-21.15101 -229.09995,0 -23.1192,5.28409 -42.8076,-19.09219 -42.8076,-42.8076 V 486.63436 c 0,-23.71541 20.0989,-35.97143 42.8076,-42.8076 z"
               sodipodi:nodetypes="ssssssssssssssssss" /></g><g
             id="g34"
             transform="matrix(-1,-0.01376981,0,1,2073.4729,40.296167)"
             inkscape:label="lines"
             style="stroke-width:1.34845"><path
               id="path34"
               style="display:inline;fill:#083863;fill-opacity:1;stroke:#083863;stroke-width:32.3628;stroke-linecap:round;stroke-dasharray:none;stroke-opacity:1"
               d="m 950.68785,639.77107 206.28135,3.36328 m -206.28137,-84.82946 206.28137,3.36328"
               sodipodi:nodetypes="cccc" /></g></g><g
           id="g16"
           inkscape:label="right"
           style="stroke-width:1.34845"
           transform="matrix(1,0,0,0.74324017,0,243.74888)"><g
             id="g8"
             transform="translate(34.6092,-25.785141)"
             inkscape:label="pages"
             style="stroke-width:1.34845"><path
               id="path8"
               style="fill:#00efd1;fill-opacity:1;stroke:none;stroke-width:32.3628"
               d="m 905.09445,443.82676 c 75.4206,-22.7044 151.57005,28.8971 229.09995,56.81454 22.3129,8.03457 42.8076,19.09219 42.8076,42.8076 v 386.06113 c 0,23.71541 -19.6583,47.95837 -42.8076,42.8076 -65.2623,-14.52101 -136.55905,-21.15101 -229.09995,0 -23.1192,5.28409 -42.8076,-19.09219 -42.8076,-42.8076 V 486.63436 c 0,-23.71541 20.0989,-35.97143 42.8076,-42.8076 z"
               sodipodi:nodetypes="sssssssss" /><path
               id="path7"
               style="fill:none;stroke:#083863;stroke-width:32.3628"
               d="m 905.09445,443.82676 c 75.4206,-22.7044 151.57005,28.8971 229.09995,56.81454 22.3129,8.03457 42.8076,19.09219 42.8076,42.8076 v 386.06113 c 0,23.71541 -19.6583,47.95837 -42.8076,42.8076 -65.2623,-14.52101 -136.55905,-81.15101 -229.09995,-60 -23.1192,5.28409 -42.8076,-19.09219 -42.8076,-42.8076 V 486.63436 c 0,-23.71541 20.0989,-35.97143 42.8076,-42.8076 z m 0,0 c 75.4206,-22.7044 151.57005,28.8971 229.09995,56.81454 22.3129,8.03457 42.8076,19.09219 42.8076,42.8076 v 386.06113 c 0,23.71541 -19.6583,47.95837 -42.8076,42.8076 -65.2623,-14.52101 -136.55905,-21.15101 -229.09995,0 -23.1192,5.28409 -42.8076,-19.09219 -42.8076,-42.8076 V 486.63436 c 0,-23.71541 20.0989,-35.97143 42.8076,-42.8076 z"
               sodipodi:nodetypes="ssssssssssssssssss" /></g><g
             id="g15"
             transform="matrix(1,-0.01376982,0,1,0.42511,14.511029)"
             inkscape:label="lines"
             style="stroke-width:1.34845"><path
               style="fill:#083863;fill-opacity:1;stroke:#083863;stroke-width:32.3628;stroke-linecap:round;stroke-dasharray:none;stroke-opacity:1"
               d="m 950.68783,558.30489 206.28137,3.36328"
               id="path12" /><path
               style="fill:#083863;fill-opacity:1;stroke:#083863;stroke-width:32.3628;stroke-linecap:round;stroke-dasharray:none;stroke-opacity:1"
               d="m 950.68785,639.77107 206.28135,3.36328"
               id="path13" /><path
               style="fill:#083863;fill-opacity:1;stroke:#083863;stroke-width:32.3628;stroke-linecap:round;stroke-dasharray:none;stroke-opacity:1"
               d="m 950.68784,802.70342 206.28136,3.36328"
               id="path14" /><path
               style="fill:#083863;fill-opacity:1;stroke:#083863;stroke-width:32.3628;stroke-linecap:round;stroke-dasharray:none;stroke-opacity:1"
               d="m 950.68784,721.23724 206.28136,3.36328"
               id="path15" /></g></g></g><g
         id="g31"
         transform="matrix(1.115303,0,0,0.82948624,-334.36255,260.76167)"
         style="stroke-width:1.20864"
         inkscape:label="pen"><g
           id="g21"
           transform="translate(-58.662263,72.931462)"
           style="stroke-width:1.20864"><circle
             style="fill:#fedb41;fill-opacity:1;stroke:#083863;stroke-width:29.0076;stroke-linecap:round;stroke-dasharray:none;stroke-opacity:1"
             id="path16"
             cx="1465.27"
             cy="680.50415"
             r="124.44145" /><path
             id="circle19"
             style="fill:#f4b844;fill-opacity:1;stroke:none;stroke-width:29.0076;stroke-linecap:round;stroke-dasharray:none;stroke-opacity:1"
             d="m 1465.2695,556.0625 a 124.44145,124.44145 0 0 0 -124.4414,124.44141 124.44145,124.44145 0 0 0 19.3496,66.53711 124.44145,124.44145 0 0 0 59.127,15.30273 124.44145,124.44145 0 0 0 124.4414,-124.44141 124.44145,124.44145 0 0 0 -19.6543,-67.05468 124.44145,124.44145 0 0 0 -58.8223,-14.78516 z" /><circle
             style="fill:none;fill-opacity:1;stroke:#083863;stroke-width:29.0076;stroke-linecap:round;stroke-dasharray:none;stroke-opacity:1"
             id="circle20"
             cx="1465.27"
             cy="680.50415"
             r="124.44145" /></g><g
           id="g20"
           transform="matrix(1.2124522,0,0,1.2110234,-353.89319,-105.10691)"
           style="stroke-width:0.997443"><path
             style="fill:#f4b844;fill-opacity:1;stroke:#083863;stroke-width:23.9388;stroke-linecap:round;stroke-dasharray:none;stroke-opacity:1"
             d="m 1462.3698,705.47324 12.3722,-46.17398 104.1371,-104.13707 37.6411,37.64109 -104.2617,104.26176 z"
             id="path18" /><path
             style="fill:#ffdd55;fill-opacity:1;stroke:#083863;stroke-width:23.9388;stroke-linecap:round;stroke-dasharray:none;stroke-opacity:1"
             d="m 1434.9792,733.50059 12.3722,-46.17398 104.1371,-104.13707 37.6411,37.64109 -104.2617,104.26176 z"
             id="path17" /></g></g></g><g
       id="g49"
       transform="matrix(0.09359556,0,0,0.12352776,956.43825,188.81081)"
       style="stroke-width:1.16251"><g
         id="g45"
         inkscape:label="book"
         style="stroke-width:1.16251"><g
           id="g38"
           transform="matrix(-1,0,0,0.74324017,2410.6132,224.58433)"
           style="display:inline;stroke-width:1.34845"
           inkscape:label="left"><g
             id="g36"
             inkscape:label="pages"
             style="stroke-width:1.34845"><path
               id="path35"
               style="fill:#00acea;fill-opacity:1;stroke:none;stroke-width:32.3628"
               d="m 905.09445,443.82676 c 75.4206,-22.7044 151.57005,28.8971 229.09995,56.81454 22.3129,8.03457 42.8076,19.09219 42.8076,42.8076 v 386.06113 c 0,23.71541 -19.6583,47.95837 -42.8076,42.8076 -65.2623,-14.52101 -136.55905,-21.15101 -229.09995,0 -23.1192,5.28409 -42.8076,-19.09219 -42.8076,-42.8076 V 486.63436 c 0,-23.71541 20.0989,-35.97143 42.8076,-42.8076 z"
               sodipodi:nodetypes="sssssssss" /><path
               id="path36"
               style="fill:none;stroke:#083863;stroke-width:32.3628"
               d="m 905.09445,443.82676 c 75.4206,-22.7044 151.57005,28.8971 229.09995,56.81454 22.3129,8.03457 42.8076,19.09219 42.8076,42.8076 v 386.06113 c 0,23.71541 -19.6583,47.95837 -42.8076,42.8076 -65.2623,-14.52101 -136.55905,-81.15101 -229.09995,-60 -23.1192,5.28409 -42.8076,-19.09219 -42.8076,-42.8076 V 486.63436 c 0,-23.71541 20.0989,-35.97143 42.8076,-42.8076 z m 0,0 c 75.4206,-22.7044 151.57005,28.8971 229.09995,56.81454 22.3129,8.03457 42.8076,19.09219 42.8076,42.8076 v 386.06113 c 0,23.71541 -19.6583,47.95837 -42.8076,42.8076 -65.2623,-14.52101 -136.55905,-21.15101 -229.09995,0 -23.1192,5.28409 -42.8076,-19.09219 -42.8076,-42.8076 V 486.63436 c 0,-23.71541 20.0989,-35.97143 42.8076,-42.8076 z"
               sodipodi:nodetypes="ssssssssssssssssss" /></g><g
             id="g37"
             transform="matrix(-1,-0.01376981,0,1,2073.4729,40.296167)"
             inkscape:label="lines"
             style="stroke-width:1.34845"><path
               id="path37"
               style="display:inline;fill:#083863;fill-opacity:1;stroke:#083863;stroke-width:32.3628;stroke-linecap:round;stroke-dasharray:none;stroke-opacity:1"
               d="m 950.68785,639.77107 206.28135,3.36328 m -206.28137,-84.82946 206.28137,3.36328"
               sodipodi:nodetypes="cccc" /></g></g><g
           id="g44"
           inkscape:label="right"
           style="stroke-width:1.34845"
           transform="matrix(1,0,0,0.74324017,0,243.74888)"><g
             id="g39"
             transform="translate(34.6092,-25.785141)"
             inkscape:label="pages"
             style="stroke-width:1.34845"><path
               id="path38"
               style="fill:#00efd1;fill-opacity:1;stroke:none;stroke-width:32.3628"
               d="m 905.09445,443.82676 c 75.4206,-22.7044 151.57005,28.8971 229.09995,56.81454 22.3129,8.03457 42.8076,19.09219 42.8076,42.8076 v 386.06113 c 0,23.71541 -19.6583,47.95837 -42.8076,42.8076 -65.2623,-14.52101 -136.55905,-21.15101 -229.09995,0 -23.1192,5.28409 -42.8076,-19.09219 -42.8076,-42.8076 V 486.63436 c 0,-23.71541 20.0989,-35.97143 42.8076,-42.8076 z"
               sodipodi:nodetypes="sssssssss" /><path
               id="path39"
               style="fill:none;stroke:#083863;stroke-width:32.3628"
               d="m 905.09445,443.82676 c 75.4206,-22.7044 151.57005,28.8971 229.09995,56.81454 22.3129,8.03457 42.8076,19.09219 42.8076,42.8076 v 386.06113 c 0,23.71541 -19.6583,47.95837 -42.8076,42.8076 -65.2623,-14.52101 -136.55905,-81.15101 -229.09995,-60 -23.1192,5.28409 -42.8076,-19.09219 -42.8076,-42.8076 V 486.63436 c 0,-23.71541 20.0989,-35.97143 42.8076,-42.8076 z m 0,0 c 75.4206,-22.7044 151.57005,28.8971 229.09995,56.81454 22.3129,8.03457 42.8076,19.09219 42.8076,42.8076 v 386.06113 c 0,23.71541 -19.6583,47.95837 -42.8076,42.8076 -65.2623,-14.52101 -136.55905,-21.15101 -229.09995,0 -23.1192,5.28409 -42.8076,-19.09219 -42.8076,-42.8076 V 486.63436 c 0,-23.71541 20.0989,-35.97143 42.8076,-42.8076 z"
               sodipodi:nodetypes="ssssssssssssssssss" /></g><g
             id="g43"
             transform="matrix(1,-0.01376982,0,1,0.42511,14.511029)"
             inkscape:label="lines"
             style="stroke-width:1.34845"><path
               style="fill:#083863;fill-opacity:1;stroke:#083863;stroke-width:32.3628;stroke-linecap:round;stroke-dasharray:none;stroke-opacity:1"
               d="m 950.68783,558.30489 206.28137,3.36328"
               id="path40" /><path
               style="fill:#083863;fill-opacity:1;stroke:#083863;stroke-width:32.3628;stroke-linecap:round;stroke-dasharray:none;stroke-opacity:1"
               d="m 950.68785,639.77107 206.28135,3.36328"
               id="path41" /><path
               style="fill:#083863;fill-opacity:1;stroke:#083863;stroke-width:32.3628;stroke-linecap:round;stroke-dasharray:none;stroke-opacity:1"
               d="m 950.68784,802.70342 206.28136,3.36328"
               id="path42" /><path
               style="fill:#083863;fill-opacity:1;stroke:#083863;stroke-width:32.3628;stroke-linecap:round;stroke-dasharray:none;stroke-opacity:1"
               d="m 950.68784,721.23724 206.28136,3.36328"
               id="path43" /></g></g></g><g
         id="g48"
         transform="matrix(1.115303,0,0,0.82948624,-334.36255,260.76167)"
         style="stroke-width:1.20864"
         inkscape:label="pen"><g
           id="g46"
           transform="translate(-58.662263,72.931462)"
           style="stroke-width:1.20864"><circle
             style="fill:#fedb41;fill-opacity:1;stroke:#083863;stroke-width:29.0076;stroke-linecap:round;stroke-dasharray:none;stroke-opacity:1"
             id="circle45"
             cx="1465.27"
             cy="680.50415"
             r="124.44145" /><path
             id="path45"
             style="fill:#f4b844;fill-opacity:1;stroke:none;stroke-width:29.0076;stroke-linecap:round;stroke-dasharray:none;stroke-opacity:1"
             d="m 1465.2695,556.0625 a 124.44145,124.44145 0 0 0 -124.4414,124.44141 124.44145,124.44145 0 0 0 19.3496,66.53711 124.44145,124.44145 0 0 0 59.127,15.30273 124.44145,124.44145 0 0 0 124.4414,-124.44141 124.44145,124.44145 0 0 0 -19.6543,-67.05468 124.44145,124.44145 0 0 0 -58.8223,-14.78516 z" /><circle
             style="fill:none;fill-opacity:1;stroke:#083863;stroke-width:29.0076;stroke-linecap:round;stroke-dasharray:none;stroke-opacity:1"
             id="circle46"
             cx="1465.27"
             cy="680.50415"
             r="124.44145" /></g><g
           id="g47"
           transform="matrix(1.2124522,0,0,1.2110234,-353.89319,-105.10691)"
           style="stroke-width:0.997443"><path
             style="fill:#f4b844;fill-opacity:1;stroke:#083863;stroke-width:23.9388;stroke-linecap:round;stroke-dasharray:none;stroke-opacity:1"
             d="m 1462.3698,705.47324 12.3722,-46.17398 104.1371,-104.13707 37.6411,37.64109 -104.2617,104.26176 z"
             id="path46" /><path
             style="fill:#ffdd55;fill-opacity:1;stroke:#083863;stroke-width:23.9388;stroke-linecap:round;stroke-dasharray:none;stroke-opacity:1"
             d="m 1434.9792,733.50059 12.3722,-46.17398 104.1371,-104.13707 37.6411,37.64109 -104.2617,104.26176 z"
             id="path47" /></g></g></g><g
       id="g63"
       transform="matrix(0.04679778,0,0,0.06176388,1098.3308,235.53205)"
       style="stroke-width:1.16251"
       inkscape:export-filename="src\resources\icons\appIcon-32.png"
       inkscape:export-xdpi="96"
       inkscape:export-ydpi="96"><g
         id="g59"
         inkscape:label="book"
         style="stroke-width:1.16251"><g
           id="g52"
           transform="matrix(-1,0,0,0.74324017,2410.6132,224.58433)"
           style="display:inline;stroke-width:1.34845"
           inkscape:label="left"><g
             id="g50"
             inkscape:label="pages"
             style="stroke-width:1.34845"><path
               id="path49"
               style="fill:#00acea;fill-opacity:1;stroke:none;stroke-width:32.3628"
               d="m 905.09445,443.82676 c 75.4206,-22.7044 151.57005,28.8971 229.09995,56.81454 22.3129,8.03457 42.8076,19.09219 42.8076,42.8076 v 386.06113 c 0,23.71541 -19.6583,47.95837 -42.8076,42.8076 -65.2623,-14.52101 -136.55905,-21.15101 -229.09995,0 -23.1192,5.28409 -42.8076,-19.09219 -42.8076,-42.8076 V 486.63436 c 0,-23.71541 20.0989,-35.97143 42.8076,-42.8076 z"
               sodipodi:nodetypes="sssssssss" /><path
               id="path50"
               style="fill:none;stroke:#083863;stroke-width:32.3628"
               d="m 905.09445,443.82676 c 75.4206,-22.7044 151.57005,28.8971 229.09995,56.81454 22.3129,8.03457 42.8076,19.09219 42.8076,42.8076 v 386.06113 c 0,23.71541 -19.6583,47.95837 -42.8076,42.8076 -65.2623,-14.52101 -136.55905,-81.15101 -229.09995,-60 -23.1192,5.28409 -42.8076,-19.09219 -42.8076,-42.8076 V 486.63436 c 0,-23.71541 20.0989,-35.97143 42.8076,-42.8076 z m 0,0 c 75.4206,-22.7044 151.57005,28.8971 229.09995,56.81454 22.3129,8.03457 42.8076,19.09219 42.8076,42.8076 v 386.06113 c 0,23.71541 -19.6583,47.95837 -42.8076,42.8076 -65.2623,-14.52101 -136.55905,-21.15101 -229.09995,0 -23.1192,5.28409 -42.8076,-19.09219 -42.8076,-42.8076 V 486.63436 c 0,-23.71541 20.0989,-35.97143 42.8076,-42.8076 z"
               sodipodi:nodetypes="ssssssssssssssssss" /></g><g
             id="g51"
             transform="matrix(-1,-0.01376981,0,1,2073.4729,40.296167)"
             inkscape:label="lines"
             style="stroke-width:1.34845"><path
               id="path51"
               style="display:inline;fill:#083863;fill-opacity:1;stroke:#083863;stroke-width:32.3628;stroke-linecap:round;stroke-dasharray:none;stroke-opacity:1"
               d="m 950.68785,639.77107 206.28135,3.36328 m -206.28137,-84.82946 206.28137,3.36328"
               sodipodi:nodetypes="cccc" /></g></g><g
           id="g58"
           inkscape:label="right"
           style="stroke-width:1.34845"
           transform="matrix(1,0,0,0.74324017,0,243.74888)"><g
             id="g53"
             transform="translate(34.6092,-25.785141)"
             inkscape:label="pages"
             style="stroke-width:1.34845"><path
               id="path52"
               style="fill:#00efd1;fill-opacity:1;stroke:none;stroke-width:32.3628"
               d="m 905.09445,443.82676 c 75.4206,-22.7044 151.57005,28.8971 229.09995,56.81454 22.3129,8.03457 42.8076,19.09219 42.8076,42.8076 v 386.06113 c 0,23.71541 -19.6583,47.95837 -42.8076,42.8076 -65.2623,-14.52101 -136.55905,-21.15101 -229.09995,0 -23.1192,5.28409 -42.8076,-19.09219 -42.8076,-42.8076 V 486.63436 c 0,-23.71541 20.0989,-35.97143 42.8076,-42.8076 z"
               sodipodi:nodetypes="sssssssss" /><path
               id="path53"
               style="fill:none;stroke:#083863;stroke-width:32.3628"
               d="m 905.09445,443.82676 c 75.4206,-22.7044 151.57005,28.8971 229.09995,56.81454 22.3129,8.03457 42.8076,19.09219 42.8076,42.8076 v 386.06113 c 0,23.71541 -19.6583,47.95837 -42.8076,42.8076 -65.2623,-14.52101 -136.55905,-81.15101 -229.09995,-60 -23.1192,5.28409 -42.8076,-19.09219 -42.8076,-42.8076 V 486.63436 c 0,-23.71541 20.0989,-35.97143 42.8076,-42.8076 z m 0,0 c 75.4206,-22.7044 151.57005,28.8971 229.09995,56.81454 22.3129,8.03457 42.8076,19.09219 42.8076,42.8076 v 386.06113 c 0,23.71541 -19.6583,47.95837 -42.8076,42.8076 -65.2623,-14.52101 -136.55905,-21.15101 -229.09995,0 -23.1192,5.28409 -42.8076,-19.09219 -42.8076,-42.8076 V 486.63436 c 0,-23.71541 20.0989,-35.97143 42.8076,-42.8076 z"
               sodipodi:nodetypes="ssssssssssssssssss" /></g><g
             id="g57"
             transform="matrix(1,-0.01376982,0,1,0.42511,14.511029)"
             inkscape:label="lines"
             style="stroke-width:1.34845"><path
               style="fill:#083863;fill-opacity:1;stroke:#083863;stroke-width:32.3628;stroke-linecap:round;stroke-dasharray:none;stroke-opacity:1"
               d="m 950.68783,558.30489 206.28137,3.36328"
               id="path54" /><path
               style="fill:#083863;fill-opacity:1;stroke:#083863;stroke-width:32.3628;stroke-linecap:round;stroke-dasharray:none;stroke-opacity:1"
               d="m 950.68785,639.77107 206.28135,3.36328"
               id="path55" /><path
               style="fill:#083863;fill-opacity:1;stroke:#083863;stroke-width:32.3628;stroke-linecap:round;stroke-dasharray:none;stroke-opacity:1"
               d="m 950.68784,802.70342 206.28136,3.36328"
               id="path56" /><path
               style="fill:#083863;fill-opacity:1;stroke:#083863;stroke-width:32.3628;stroke-linecap:round;stroke-dasharray:none;stroke-opacity:1"
               d="m 950.68784,721.23724 206.28136,3.36328"
               id="path57" /></g></g></g><g
         id="g62"
         transform="matrix(1.115303,0,0,0.82948624,-334.36255,260.76167)"
         style="stroke-width:1.20864"
         inkscape:label="pen"><g
           id="g60"
           transform="translate(-58.662263,72.931462)"
           style="stroke-width:1.20864"><circle
             style="fill:#fedb41;fill-opacity:1;stroke:#083863;stroke-width:29.0076;stroke-linecap:round;stroke-dasharray:none;stroke-opacity:1"
             id="circle59"
             cx="1465.27"
             cy="680.50415"
             r="124.44145" /><path
             id="path59"
             style="fill:#f4b844;fill-opacity:1;stroke:none;stroke-width:29.0076;stroke-linecap:round;stroke-dasharray:none;stroke-opacity:1"
             d="m 1465.2695,556.0625 a 124.44145,124.44145 0 0 0 -124.4414,124.44141 124.44145,124.44145 0 0 0 19.3496,66.53711 124.44145,124.44145 0 0 0 59.127,15.30273 124.44145,124.44145 0 0 0 124.4414,-124.44141 124.44145,124.44145 0 0 0 -19.6543,-67.05468 124.44145,124.44145 0 0 0 -58.8223,-14.78516 z" /><circle
             style="fill:none;fill-opacity:1;stroke:#083863;stroke-width:29.0076;stroke-linecap:round;stroke-dasharray:none;stroke-opacity:1"
             id="circle60"
             cx="1465.27"
             cy="680.50415"
             r="124.44145" /></g><g
           id="g61"
           transform="matrix(1.2124522,0,0,1.2110234,-353.89319,-105.10691)"
           style="stroke-width:0.997443"><path
             style="fill:#f4b844;fill-opacity:1;stroke:#083863;stroke-width:23.9388;stroke-linecap:round;stroke-dasharray:none;stroke-opacity:1"
             d="m 1462.3698,705.47324 12.3722,-46.17398 104.1371,-104.13707 37.6411,37.64109 -104.2617,104.26176 z"
             id="path60" /><path
             style="fill:#ffdd55;fill-opacity:1;stroke:#083863;stroke-width:23.9388;stroke-linecap:round;stroke-dasharray:none;stroke-opacity:1"
             d="m 1434.9792,733.50059 12.3722,-46.17398 104.1371,-104.13707 37.6411,37.64109 -104.2617,104.26176 z"
             id="path61" /></g></g></g></g></svg>
